# xmcd CD database file
#
# Track frame offsets:
#	150
#	9469
#	24814
#	39904
#	57036
#	76263
#	90525
#	106352
#	124569
#	140737
#	155969
#	173064
#	191143
#
# Disc length: 2737 seconds
#
# Revision: 0
# Processed by: cddbd v1.4PL0 Copyright (c) Steve Scherf et al.
# Submitted via: CDex 1.50beta10
#
DISCID=9c0aaf0d
DTITLE=Travis Tritt - Strong Enough
DYEAR=2002
DGENRE=Country
TTITLE0=Handleman Greeting
TTITLE1=You Can't Count Me Out Yet
TTITLE2=Can't Tell Me Nothin' 
TTITLE3=Strong Enough to Be Your Man
TTITLE4=Country Ain't Country
TTITLE5=If You're Gonna Straighten Up
TTITLE6=Doesn't Anyone Hurt Anymore
TTITLE7=You Really Wouldn't Want Me That Way
TTITLE8=I Don't Ever Want Her To Feel That Way Again
TTITLE9=Time to Get Crazy
TTITLE10=Now I've Seen it All
TTITLE11=God Must Be a Woman
TTITLE12=I Can't Seem to Get Over You
EXTD=YEAR: 2002
EXTT0=
EXTT1=
EXTT2=
EXTT3=
EXTT4=
EXTT5=
EXTT6=
EXTT7=
EXTT8=
EXTT9=
EXTT10=
EXTT11=
EXTT12=
PLAYORDER=
